<?xml version="1.0" encoding="UTF-8"?>
<svg id="_Слой_2" data-name="Слой 2" xmlns="http://www.w3.org/2000/svg" xmlns:xlink="http://www.w3.org/1999/xlink" viewBox="0 0 574.2 381.9">
  <defs>
    <style>
      .cls-1 {
        fill: #fff;
      }

      .cls-2 {
        fill: #e8eaf6;
      }

      .cls-3 {
        opacity: .5;
      }

      .cls-4 {
        fill: url(#_Безымянный_градиент);
      }

      .cls-5 {
        fill: #f98e5d;
      }

      .cls-6 {
        opacity: .1;
      }

      .cls-7 {
        fill: #2a2a2a;
      }

      .cls-8 {
        fill: #a47ed4;
      }

      .cls-9 {
        opacity: .8;
      }

      .cls-10 {
        fill: #5267df;
      }

      .cls-11 {
        fill: none;
      }

      .cls-12 {
        opacity: .1;
      }

      .cls-13 {
        opacity: .2;
      }

      .cls-14 {
        mask: url(#mask-1);
      }

      .cls-15 {
        mask: url(#mask);
      }

      .cls-16 {
        fill: #6ac6d6;
      }

      .cls-17 {
        fill: #242a45;
      }

      .cls-18 {
        opacity: .2;
      }

      .cls-19 {
        fill: #ec7878;
      }
    </style>
    <linearGradient id="_Безымянный_градиент" data-name="Безымянный градиент" x1="675.7" y1="-6.4" x2="121.7" y2="361.9" gradientTransform="translate(0 442.9) scale(1 -1)" gradientUnits="userSpaceOnUse">
      <stop offset="0" stop-color="#151515"/>
      <stop offset="1" stop-color="#3d3d3d"/>
    </linearGradient>
    <mask id="mask" x="15.5" y="17.3" width="547" height="346" maskUnits="userSpaceOnUse">
      <g id="c">
        <rect class="cls-2" x="19" y="17.3" width="536" height="346" rx="8" ry="8"/>
        <rect class="cls-11" x="19" y="17.3" width="536" height="346" rx="8" ry="8"/>
      </g>
    </mask>
    <mask id="mask-1" x="19" y="20.5" width="536" height="361.5" maskUnits="userSpaceOnUse">
      <g id="c-2" data-name="c">
        <path class="cls-2" d="m27,20.5h520c4.4,0,8,3.5,8,7.9v325.8c0,4.4-3.6,7.9-8,7.9H27c-4.4,0-8-3.5-8-7.9V28.4c0-4.4,3.6-7.9,8-7.9Z"/>
        <path class="cls-11" d="m27,20.5h520c4.4,0,8,3.5,8,7.9v325.8c0,4.4-3.6,7.9-8,7.9H27c-4.4,0-8-3.5-8-7.9V28.4c0-4.4,3.6-7.9,8-7.9Z"/>
      </g>
    </mask>
  </defs>
  <g id="_Слой_1-2" data-name="Слой 1">
    <rect class="cls-4" width="574.2" height="381.9" rx="25" ry="25"/>
    <rect class="cls-11" width="574.2" height="381.9" rx="25" ry="25"/>
    <g class="cls-12">
      <rect class="cls-7" x="52" y="14.3" width="471.5" height="353.8" rx="5" ry="5"/>
      <rect class="cls-11" x="52" y="14.3" width="471.5" height="353.8" rx="5" ry="5"/>
    </g>
    <rect class="cls-2" x="19" y="17.3" width="536" height="346" rx="8" ry="8"/>
    <rect class="cls-11" x="19" y="17.3" width="536" height="346" rx="8" ry="8"/>
    <g class="cls-15">
      <g>
        <path class="cls-10" d="m15.5,17.5h547v59H15.5V17.5Z"/>
        <path class="cls-11" d="m15.5,17.5h547v59H15.5V17.5Z"/>
        <g class="cls-13">
          <circle class="cls-1" cx="57.5" cy="47.5" r="16"/>
          <circle class="cls-11" cx="57.5" cy="47.5" r="16"/>
        </g>
        <g class="cls-6">
          <circle class="cls-1" cx="518.5" cy="47.5" r="16"/>
          <circle class="cls-11" cx="518.5" cy="47.5" r="16"/>
        </g>
        <g class="cls-9">
          <path class="cls-1" d="m91.5,37.5h114c1.7,0,3,1.3,3,3h0c0,1.7-1.3,3-3,3h-114c-1.7,0-3-1.3-3-3h0c0-1.7,1.3-3,3-3Z"/>
          <path class="cls-11" d="m91.5,37.5h114c1.7,0,3,1.3,3,3h0c0,1.7-1.3,3-3,3h-114c-1.7,0-3-1.3-3-3h0c0-1.7,1.3-3,3-3Z"/>
        </g>
        <g class="cls-18">
          <path class="cls-1" d="m91.5,51.5h58c1.7,0,3,1.3,3,3h0c0,1.7-1.3,3-3,3h-58c-1.7,0-3-1.3-3-3h0c0-1.7,1.3-3,3-3Z"/>
          <path class="cls-11" d="m91.5,51.5h58c1.7,0,3,1.3,3,3h0c0,1.7-1.3,3-3,3h-58c-1.7,0-3-1.3-3-3h0c0-1.7,1.3-3,3-3Z"/>
        </g>
      </g>
    </g>
    <g class="cls-14">
      <g>
        <path class="cls-1" d="m122.4,379.3c19.1-.3,38.2-.5,57.4-.2,7.6-.7,15.2-.7,22.7.7,10,.5,19.9,1.3,29.9,2.2,3.7-.3,7.5-.5,11.2-.6,11.6-.5,23.1-.1,34.7-1.1,19.5-1.7,39.4-5.3,58.9-2.2V120.2c0-4.4-3.6-7.9-8-7.9H84c-4.4,0-8,3.5-8,7.9v260.8c1.4,0,2.8,0,4.2,0,14-1,28.1-1.5,42.1-1.7Z"/>
        <path class="cls-11" d="m122.4,379.3c19.1-.3,38.2-.5,57.4-.2,7.6-.7,15.2-.7,22.7.7,10,.5,19.9,1.3,29.9,2.2,3.7-.3,7.5-.5,11.2-.6,11.6-.5,23.1-.1,34.7-1.1,19.5-1.7,39.4-5.3,58.9-2.2V120.2c0-4.4-3.6-7.9-8-7.9H84c-4.4,0-8,3.5-8,7.9v260.8c1.4,0,2.8,0,4.2,0,14-1,28.1-1.5,42.1-1.7Z"/>
        <path class="cls-1" d="m433.7,371.9c21.8.5,43.7-.3,65.3,1.4V120.2c0-4.4-3.6-7.9-8-7.9h-112c-4.4,0-8,3.5-8,7.9v253.8c20.4-4,42.5-2.5,62.7-2.1Z"/>
        <path class="cls-11" d="m433.7,371.9c21.8.5,43.7-.3,65.3,1.4V120.2c0-4.4-3.6-7.9-8-7.9h-112c-4.4,0-8,3.5-8,7.9v253.8c20.4-4,42.5-2.5,62.7-2.1Z"/>
        <g class="cls-3">
          <path class="cls-17" d="m157.5,150h114c1.7,0,3,1.3,3,3h0c0,1.6-1.3,3-3,3h-114c-1.7,0-3-1.3-3-3h0c0-1.6,1.3-3,3-3Z"/>
          <path class="cls-11" d="m157.5,150h114c1.7,0,3,1.3,3,3h0c0,1.6-1.3,3-3,3h-114c-1.7,0-3-1.3-3-3h0c0-1.6,1.3-3,3-3Z"/>
        </g>
      </g>
    </g>
    <circle class="cls-5" cx="123.5" cy="158.5" r="16"/>
    <circle class="cls-11" cx="123.5" cy="158.5" r="16"/>
    <g class="cls-18">
      <path class="cls-17" d="m394.5,132.5h82c1.7,0,3,1.3,3,3h0c0,1.7-1.3,3-3,3h-82c-1.7,0-3-1.3-3-3h0c0-1.7,1.3-3,3-3Z"/>
      <path class="cls-11" d="m394.5,132.5h82c1.7,0,3,1.3,3,3h0c0,1.7-1.3,3-3,3h-82c-1.7,0-3-1.3-3-3h0c0-1.7,1.3-3,3-3Z"/>
    </g>
    <g class="cls-18">
      <path class="cls-17" d="m394.5,152.5h82c1.7,0,3,1.3,3,3h0c0,1.7-1.3,3-3,3h-82c-1.7,0-3-1.3-3-3h0c0-1.7,1.3-3,3-3Z"/>
      <path class="cls-11" d="m394.5,152.5h82c1.7,0,3,1.3,3,3h0c0,1.7-1.3,3-3,3h-82c-1.7,0-3-1.3-3-3h0c0-1.7,1.3-3,3-3Z"/>
    </g>
    <g class="cls-18">
      <path class="cls-17" d="m394.5,172.5h82c1.7,0,3,1.3,3,3h0c0,1.7-1.3,3-3,3h-82c-1.7,0-3-1.3-3-3h0c0-1.7,1.3-3,3-3Z"/>
      <path class="cls-11" d="m394.5,172.5h82c1.7,0,3,1.3,3,3h0c0,1.7-1.3,3-3,3h-82c-1.7,0-3-1.3-3-3h0c0-1.7,1.3-3,3-3Z"/>
    </g>
    <g class="cls-18">
      <path class="cls-17" d="m394.5,192.5h82c1.7,0,3,1.3,3,3h0c0,1.7-1.3,3-3,3h-82c-1.7,0-3-1.3-3-3h0c0-1.7,1.3-3,3-3Z"/>
      <path class="cls-11" d="m394.5,192.5h82c1.7,0,3,1.3,3,3h0c0,1.7-1.3,3-3,3h-82c-1.7,0-3-1.3-3-3h0c0-1.7,1.3-3,3-3Z"/>
    </g>
    <g class="cls-18">
      <path class="cls-17" d="m394.5,226.5h82c1.7,0,3,1.3,3,3h0c0,1.7-1.3,3-3,3h-82c-1.7,0-3-1.3-3-3h0c0-1.7,1.3-3,3-3Z"/>
      <path class="cls-11" d="m394.5,226.5h82c1.7,0,3,1.3,3,3h0c0,1.7-1.3,3-3,3h-82c-1.7,0-3-1.3-3-3h0c0-1.7,1.3-3,3-3Z"/>
    </g>
    <g class="cls-18">
      <path class="cls-17" d="m394.5,246.5h82c1.7,0,3,1.3,3,3h0c0,1.7-1.3,3-3,3h-82c-1.7,0-3-1.3-3-3h0c0-1.7,1.3-3,3-3Z"/>
      <path class="cls-11" d="m394.5,246.5h82c1.7,0,3,1.3,3,3h0c0,1.7-1.3,3-3,3h-82c-1.7,0-3-1.3-3-3h0c0-1.7,1.3-3,3-3Z"/>
    </g>
    <g class="cls-18">
      <path class="cls-17" d="m394.5,266.5h82c1.7,0,3,1.3,3,3h0c0,1.7-1.3,3-3,3h-82c-1.7,0-3-1.3-3-3h0c0-1.7,1.3-3,3-3Z"/>
      <path class="cls-11" d="m394.5,266.5h82c1.7,0,3,1.3,3,3h0c0,1.7-1.3,3-3,3h-82c-1.7,0-3-1.3-3-3h0c0-1.7,1.3-3,3-3Z"/>
    </g>
    <g class="cls-18">
      <path class="cls-17" d="m157.5,162.5h58c1.7,0,3,1.3,3,3h0c0,1.7-1.3,3-3,3h-58c-1.7,0-3-1.3-3-3h0c0-1.7,1.3-3,3-3Z"/>
      <path class="cls-11" d="m157.5,162.5h58c1.7,0,3,1.3,3,3h0c0,1.7-1.3,3-3,3h-58c-1.7,0-3-1.3-3-3h0c0-1.7,1.3-3,3-3Z"/>
    </g>
    <circle class="cls-16" cx="123.5" cy="214.5" r="16"/>
    <circle class="cls-11" cx="123.5" cy="214.5" r="16"/>
    <g class="cls-3">
      <path class="cls-17" d="m157.5,204.5h114c1.7,0,3,1.3,3,3h0c0,1.7-1.3,3-3,3h-114c-1.7,0-3-1.3-3-3h0c0-1.7,1.3-3,3-3Z"/>
      <path class="cls-11" d="m157.5,204.5h114c1.7,0,3,1.3,3,3h0c0,1.7-1.3,3-3,3h-114c-1.7,0-3-1.3-3-3h0c0-1.7,1.3-3,3-3Z"/>
    </g>
    <g class="cls-18">
      <path class="cls-17" d="m157.5,218.5h58c1.7,0,3,1.3,3,3h0c0,1.7-1.3,3-3,3h-58c-1.7,0-3-1.3-3-3h0c0-1.7,1.3-3,3-3Z"/>
      <path class="cls-11" d="m157.5,218.5h58c1.7,0,3,1.3,3,3h0c0,1.7-1.3,3-3,3h-58c-1.7,0-3-1.3-3-3h0c0-1.7,1.3-3,3-3Z"/>
    </g>
    <circle class="cls-8" cx="123.5" cy="270.5" r="16"/>
    <circle class="cls-11" cx="123.5" cy="270.5" r="16"/>
    <g class="cls-3">
      <path class="cls-17" d="m157.5,260.5h114c1.7,0,3,1.3,3,3h0c0,1.7-1.3,3-3,3h-114c-1.7,0-3-1.3-3-3h0c0-1.7,1.3-3,3-3Z"/>
      <path class="cls-11" d="m157.5,260.5h114c1.7,0,3,1.3,3,3h0c0,1.7-1.3,3-3,3h-114c-1.7,0-3-1.3-3-3h0c0-1.7,1.3-3,3-3Z"/>
    </g>
    <g class="cls-18">
      <path class="cls-17" d="m157.5,274.5h58c1.7,0,3,1.3,3,3h0c0,1.7-1.3,3-3,3h-58c-1.7,0-3-1.3-3-3h0c0-1.7,1.3-3,3-3Z"/>
      <path class="cls-11" d="m157.5,274.5h58c1.7,0,3,1.3,3,3h0c0,1.7-1.3,3-3,3h-58c-1.7,0-3-1.3-3-3h0c0-1.7,1.3-3,3-3Z"/>
    </g>
    <circle class="cls-19" cx="123.5" cy="326.5" r="16"/>
    <circle class="cls-11" cx="123.5" cy="326.5" r="16"/>
    <g class="cls-3">
      <path class="cls-17" d="m157.5,316.5h114c1.7,0,3,1.3,3,3h0c0,1.7-1.3,3-3,3h-114c-1.7,0-3-1.3-3-3h0c0-1.7,1.3-3,3-3Z"/>
      <path class="cls-11" d="m157.5,316.5h114c1.7,0,3,1.3,3,3h0c0,1.7-1.3,3-3,3h-114c-1.7,0-3-1.3-3-3h0c0-1.7,1.3-3,3-3Z"/>
    </g>
    <g class="cls-18">
      <path class="cls-17" d="m157.5,330.5h58c1.7,0,3,1.3,3,3h0c0,1.7-1.3,3-3,3h-58c-1.7,0-3-1.3-3-3h0c0-1.7,1.3-3,3-3Z"/>
      <path class="cls-11" d="m157.5,330.5h58c1.7,0,3,1.3,3,3h0c0,1.7-1.3,3-3,3h-58c-1.7,0-3-1.3-3-3h0c0-1.7,1.3-3,3-3Z"/>
    </g>
  </g>
</svg>