<svg xmlns="http://www.w3.org/2000/svg" width="149" height="25" fill="none"><path fill="#242A45" fill-rule="evenodd" d="M42.227 6.299H37v13.365h5.413c.81 0 1.547-.152 2.212-.457a3.817 3.817 0 0 0 1.587-1.307c.392-.566.588-1.216.588-1.95 0-.76-.205-1.41-.616-1.951-.41-.542-.964-.937-1.661-1.186v-.149a3.255 3.255 0 0 0 1.297-1.13c.33-.49.495-1.073.495-1.745 0-.634-.18-1.22-.542-1.754-.36-.535-.855-.959-1.484-1.27a4.584 4.584 0 0 0-2.062-.466Zm-.187 5.45c.548 0 .986-.152 1.316-.457.33-.305.495-.688.495-1.148 0-.448-.159-.824-.476-1.13-.318-.304-.738-.457-1.26-.457H39.52v3.192h2.52Zm.28 5.619c.61 0 1.086-.159 1.428-.476.342-.317.513-.731.513-1.241 0-.51-.174-.927-.522-1.251-.349-.324-.847-.485-1.494-.485H39.52v3.453h2.8Zm9.37 1.67c1.065.617 2.25.925 3.557.925 1.306 0 2.492-.308 3.556-.924a6.71 6.71 0 0 0 2.51-2.53c.61-1.07.915-2.246.915-3.528 0-1.281-.305-2.457-.915-3.528a6.71 6.71 0 0 0-2.51-2.529C57.739 6.308 56.553 6 55.247 6c-1.307 0-2.492.308-3.556.924a6.711 6.711 0 0 0-2.511 2.53c-.61 1.07-.915 2.246-.915 3.527 0 1.282.305 2.458.915 3.528a6.711 6.711 0 0 0 2.51 2.53Zm3.557-1.465c.821 0 1.574-.193 2.258-.578a4.176 4.176 0 0 0 1.615-1.624c.392-.697.588-1.494.588-2.39 0-.896-.196-1.692-.588-2.389a4.176 4.176 0 0 0-1.615-1.624 4.52 4.52 0 0 0-2.258-.579 4.47 4.47 0 0 0-2.25.579 4.195 4.195 0 0 0-1.605 1.624c-.392.697-.588 1.493-.588 2.39 0 .895.196 1.692.588 2.389a4.195 4.195 0 0 0 1.605 1.624 4.47 4.47 0 0 0 2.25.578Zm11.797 1.466c1.064.616 2.25.924 3.556.924 1.307 0 2.492-.308 3.556-.924a6.711 6.711 0 0 0 2.51-2.53c.61-1.07.915-2.246.915-3.528 0-1.281-.305-2.457-.914-3.528a6.711 6.711 0 0 0-2.511-2.529C73.092 6.308 71.906 6 70.6 6c-1.307 0-2.492.308-3.556.924a6.711 6.711 0 0 0-2.51 2.53c-.61 1.07-.915 2.246-.915 3.527 0 1.282.305 2.458.914 3.528a6.711 6.711 0 0 0 2.511 2.53Zm3.556-1.466c.821 0 1.574-.193 2.259-.578a4.177 4.177 0 0 0 1.614-1.624c.392-.697.588-1.494.588-2.39 0-.896-.196-1.692-.588-2.389a4.177 4.177 0 0 0-1.614-1.624 4.521 4.521 0 0 0-2.259-.579 4.47 4.47 0 0 0-2.25.579 4.195 4.195 0 0 0-1.605 1.624c-.392.697-.588 1.493-.588 2.39 0 .895.196 1.692.588 2.389a4.195 4.195 0 0 0 1.606 1.624 4.47 4.47 0 0 0 2.249.578ZM82.35 6.3h-2.52v13.365h2.52v-3.92l1.513-1.773 3.994 5.693h3.08v-.15l-5.338-7.54 4.834-5.526v-.15h-3.042L82.5 12.03h-.15V6.3ZM97.027 6h-3.248v13.365h2.482v-6.589l-.149-2.221h.15l3.415 8.81h1.96l3.398-8.81h.149l-.149 2.221v6.59h2.501V6h-3.267l-3.546 9.39h-.15L97.026 6Zm20.446 0h-2.893l-5.003 13.365h2.781l1.12-3.192h5.115l1.12 3.192h2.781L117.472 6Zm.299 7.859-1.176-3.36-.486-1.606h-.149l-.485 1.606-1.195 3.36h3.491ZM129.425 6h-4.872v13.365h2.52v-5.021h1.176l3.453 5.021h2.894v-.149l-3.584-5.133.018-.131a4.611 4.611 0 0 0 2.044-1.447 3.52 3.52 0 0 0 .812-2.286c0-.81-.186-1.534-.56-2.175a3.906 3.906 0 0 0-1.577-1.503c-.678-.36-1.453-.541-2.324-.541Zm-.019 6.03c.573 0 1.039-.175 1.4-.523.361-.349.542-.79.542-1.326 0-.51-.172-.945-.514-1.306-.342-.361-.806-.542-1.39-.542h-2.371v3.696h2.333Zm9.75-6.03h-2.52v13.365h2.52v-3.92l1.512-1.773 3.995 5.693h3.08v-.149l-5.339-7.541 4.835-5.526V6h-3.043l-4.89 5.73h-.15V6Z" clip-rule="evenodd"/><circle cx="12.5" cy="12.5" r="12.5" fill="#5267DF"/><circle cx="12.5" cy="12.5" r="12.5"/><path fill="#FFF" fill-rule="evenodd" d="M11 7c-1.11 0-2 .89-2 2v10l3.53-3.44L16.07 19V9c0-1.11-.89-2-2-2H11Z"/><path d="m9 19 3.53-3.44L16.07 19V9c0-1.11-.89-2-2-2H11c-1.11 0-2 .89-2 2v10Z"/></svg>